<svg width="1440" height="1026" viewBox="0 0 1440 1026" fill="none" xmlns="http://www.w3.org/2000/svg">
<g clip-path="url(#clip0_78_608)">
<rect width="1440" height="1026" fill="url(#paint0_linear_78_608)"/>
<path d="M0 868.3L19.95 873.62C40.05 879.13 79.95 889.77 120 888.25C160.05 886.73 199.95 872.67 240 865.07C280.05 857.47 319.95 856.33 360 860.7C400.05 865.07 439.95 875.33 480 881.03C520.05 886.73 559.95 887.87 600 877.8C640.05 867.73 679.95 846.07 720 845.12C760.05 844.17 799.95 863.93 840 871.53C880.05 879.13 919.95 874.57 960 875.33C1000.05 875.9 1039.95 881.6 1080 886.73C1120.05 891.67 1159.95 896.23 1200 887.68C1240.05 879.13 1279.95 857.47 1320 845.12C1360.05 832.77 1399.95 829.73 1420.05 828.02L1440 826.5V1027.9H1420.05C1399.95 1027.9 1360.05 1027.9 1320 1027.9C1279.95 1027.9 1240.05 1027.9 1200 1027.9C1159.95 1027.9 1120.05 1027.9 1080 1027.9C1039.95 1027.9 1000.05 1027.9 960 1027.9C919.95 1027.9 880.05 1027.9 840 1027.9C799.95 1027.9 760.05 1027.9 720 1027.9C679.95 1027.9 640.05 1027.9 600 1027.9C559.95 1027.9 520.05 1027.9 480 1027.9C439.95 1027.9 400.05 1027.9 360 1027.9C319.95 1027.9 280.05 1027.9 240 1027.9C199.95 1027.9 160.05 1027.9 120 1027.9C79.95 1027.9 40.05 1027.9 19.95 1027.9H0V868.3Z" fill="#5D9698"/>
<path d="M0 894.9L19.95 894.52C40.05 894.33 79.95 893.57 120 900.22C160.05 906.87 199.95 920.93 240 923.4C280.05 925.87 319.95 917.13 360 908.2C400.05 899.27 439.95 890.53 480 890.53C520.05 890.53 559.95 899.27 600 905.35C640.05 911.43 679.95 914.47 720 906.87C760.05 899.27 799.95 881.03 840 881.98C880.05 882.93 919.95 903.07 960 914.28C1000.05 925.3 1039.95 927.2 1080 920.93C1120.05 914.47 1159.95 900.03 1200 896.23C1240.05 892.43 1279.95 899.27 1320 907.25C1360.05 915.23 1399.95 923.97 1420.05 928.53L1440 932.9V1027.9H1420.05C1399.95 1027.9 1360.05 1027.9 1320 1027.9C1279.95 1027.9 1240.05 1027.9 1200 1027.9C1159.95 1027.9 1120.05 1027.9 1080 1027.9C1039.95 1027.9 1000.05 1027.9 960 1027.9C919.95 1027.9 880.05 1027.9 840 1027.9C799.95 1027.9 760.05 1027.9 720 1027.9C679.95 1027.9 640.05 1027.9 600 1027.9C559.95 1027.9 520.05 1027.9 480 1027.9C439.95 1027.9 400.05 1027.9 360 1027.9C319.95 1027.9 280.05 1027.9 240 1027.9C199.95 1027.9 160.05 1027.9 120 1027.9C79.95 1027.9 40.05 1027.9 19.95 1027.9H0V894.9Z" fill="#40E0D0"/>
<path d="M0 955.7L19.95 957.03C40.05 958.17 79.95 960.83 120 956.27C160.05 951.9 199.95 940.5 240 941.83C280.05 942.97 319.95 957.03 360 960.07C400.05 963.3 439.95 955.7 480 948.1C520.05 940.5 559.95 932.9 600 936.32C640.05 939.93 679.95 954.37 720 954.18C760.05 953.8 799.95 938.6 840 927.58C880.05 916.37 919.95 909.53 960 905.73C1000.05 901.93 1039.95 901.17 1080 901.17C1120.05 901.17 1159.95 901.93 1200 904.4C1240.05 906.87 1279.95 911.43 1320 920.55C1360.05 929.67 1399.95 943.73 1420.05 950.57L1440 957.6V1027.9H1420.05C1399.95 1027.9 1360.05 1027.9 1320 1027.9C1279.95 1027.9 1240.05 1027.9 1200 1027.9C1159.95 1027.9 1120.05 1027.9 1080 1027.9C1039.95 1027.9 1000.05 1027.9 960 1027.9C919.95 1027.9 880.05 1027.9 840 1027.9C799.95 1027.9 760.05 1027.9 720 1027.9C679.95 1027.9 640.05 1027.9 600 1027.9C559.95 1027.9 520.05 1027.9 480 1027.9C439.95 1027.9 400.05 1027.9 360 1027.9C319.95 1027.9 280.05 1027.9 240 1027.9C199.95 1027.9 160.05 1027.9 120 1027.9C79.95 1027.9 40.05 1027.9 19.95 1027.9H0V955.7Z" fill="#0AB0A0"/>
<path d="M0 1001.3L19.95 996.55C40.05 991.8 79.95 982.3 120 985.15C160.05 988 199.95 1003.2 240 1008.33C280.05 1013.27 319.95 1008.33 360 1000.92C400.05 993.7 439.95 984.2 480 976.98C520.05 969.57 559.95 964.63 600 971.28C640.05 977.93 679.95 996.17 720 995.03C760.05 993.7 799.95 972.8 840 972.42C880.05 972.23 919.95 992.37 960 999.97C1000.05 1007.57 1039.95 1002.63 1080 998.83C1120.05 995.03 1159.95 992.37 1200 995.6C1240.05 998.83 1279.95 1007.57 1320 1006.05C1360.05 1004.53 1399.95 992.37 1420.05 986.48L1440 980.4V1027.9H1420.05C1399.95 1027.9 1360.05 1027.9 1320 1027.9C1279.95 1027.9 1240.05 1027.9 1200 1027.9C1159.95 1027.9 1120.05 1027.9 1080 1027.9C1039.95 1027.9 1000.05 1027.9 960 1027.9C919.95 1027.9 880.05 1027.9 840 1027.9C799.95 1027.9 760.05 1027.9 720 1027.9C679.95 1027.9 640.05 1027.9 600 1027.9C559.95 1027.9 520.05 1027.9 480 1027.9C439.95 1027.9 400.05 1027.9 360 1027.9C319.95 1027.9 280.05 1027.9 240 1027.9C199.95 1027.9 160.05 1027.9 120 1027.9C79.95 1027.9 40.05 1027.9 19.95 1027.9H0V1001.3Z" fill="#008678"/>
</g>
<defs>
<linearGradient id="paint0_linear_78_608" x1="0" y1="0" x2="969.75" y2="1361.05" gradientUnits="userSpaceOnUse">
<stop stop-color="#66287B"/>
<stop offset="0.0001" stop-color="#66287B"/>
<stop offset="1" stop-color="#2D033B"/>
</linearGradient>
<clipPath id="clip0_78_608">
<rect width="1440" height="1026" fill="white"/>
</clipPath>
</defs>
</svg>
