<svg width="390" height="641" viewBox="0 0 390 641" fill="none" xmlns="http://www.w3.org/2000/svg">
<rect width="390" height="640" fill="url(#paint0_linear_64_684)"/>
<path d="M0 535.333L5.92222 538.867C11.7722 542.467 23.6167 549.533 35.3889 549C47.1611 548.467 59.0056 540.2 70.7778 537.133C82.55 534 94.3944 536 106.167 537.667C117.939 539.333 129.783 540.667 141.556 542.333C153.328 544 165.172 546 177.089 548.133C189.006 550.2 200.994 552.467 212.911 553.467C224.828 554.467 236.672 554.2 248.444 554.2C260.217 554.2 272.061 554.467 283.833 550.8C295.606 547.133 307.45 539.533 319.222 535.867C330.994 532.2 342.839 532.467 354.611 534.2C366.383 536 378.228 539.333 384.078 541L390 542.667V640.667H384.078C378.228 640.667 366.383 640.667 354.611 640.667C342.839 640.667 330.994 640.667 319.222 640.667C307.45 640.667 295.606 640.667 283.833 640.667C272.061 640.667 260.217 640.667 248.444 640.667C236.672 640.667 224.828 640.667 212.911 640.667C200.994 640.667 189.006 640.667 177.089 640.667C165.172 640.667 153.328 640.667 141.556 640.667C129.783 640.667 117.939 640.667 106.167 640.667C94.3944 640.667 82.55 640.667 70.7778 640.667C59.0056 640.667 47.1611 640.667 35.3889 640.667C23.6167 640.667 11.7722 640.667 5.92222 640.667H0V535.333Z" fill="#5D9698"/>
<path d="M0 572.667L5.92222 571.667C11.7722 570.667 23.6167 568.667 35.3889 568.867C47.1611 569.133 59.0056 571.533 70.7778 572.467C82.55 573.333 94.3944 572.667 106.167 571.133C117.939 569.533 129.783 567.133 141.556 565.133C153.328 563.133 165.172 561.533 177.089 560.533C189.006 559.533 200.994 559.133 212.911 560.667C224.828 562.2 236.672 565.8 248.444 565.467C260.217 565.133 272.061 560.867 283.833 559.667C295.606 558.467 307.45 560.2 319.222 562.533C330.994 564.867 342.839 567.8 354.611 569.133C366.383 570.467 378.228 570.2 384.078 570.133L390 570V640.667H384.078C378.228 640.667 366.383 640.667 354.611 640.667C342.839 640.667 330.994 640.667 319.222 640.667C307.45 640.667 295.606 640.667 283.833 640.667C272.061 640.667 260.217 640.667 248.444 640.667C236.672 640.667 224.828 640.667 212.911 640.667C200.994 640.667 189.006 640.667 177.089 640.667C165.172 640.667 153.328 640.667 141.556 640.667C129.783 640.667 117.939 640.667 106.167 640.667C94.3944 640.667 82.55 640.667 70.7778 640.667C59.0056 640.667 47.1611 640.667 35.3889 640.667C23.6167 640.667 11.7722 640.667 5.92222 640.667H0V572.667Z" fill="#40E0D0"/>
<path d="M0 598L5.92222 596.333C11.7722 594.667 23.6167 591.333 35.3889 590.133C47.1611 588.867 59.0056 589.8 70.7778 591.667C82.55 593.533 94.3944 596.467 106.167 597.333C117.939 598.2 129.783 597.133 141.556 594.467C153.328 591.8 165.172 587.533 177.089 585C189.006 582.467 200.994 581.533 212.911 582C224.828 582.467 236.672 584.2 248.444 586.667C260.217 589.133 272.061 592.2 283.833 591.467C295.606 590.667 307.45 586 319.222 584.467C330.994 582.867 342.839 584.467 354.611 586.533C366.383 588.667 378.228 591.333 384.078 592.667L390 594V640.667H384.078C378.228 640.667 366.383 640.667 354.611 640.667C342.839 640.667 330.994 640.667 319.222 640.667C307.45 640.667 295.606 640.667 283.833 640.667C272.061 640.667 260.217 640.667 248.444 640.667C236.672 640.667 224.828 640.667 212.911 640.667C200.994 640.667 189.006 640.667 177.089 640.667C165.172 640.667 153.328 640.667 141.556 640.667C129.783 640.667 117.939 640.667 106.167 640.667C94.3944 640.667 82.55 640.667 70.7778 640.667C59.0056 640.667 47.1611 640.667 35.3889 640.667C23.6167 640.667 11.7722 640.667 5.92222 640.667H0V598Z" fill="#0AB0A0"/>
<path d="M0 620L5.92222 617.467C11.7722 614.867 23.6167 609.8 35.3889 607.333C47.1611 604.867 59.0056 605.133 70.7778 606.2C82.55 607.333 94.3944 609.333 106.167 610.867C117.939 612.467 129.783 613.533 141.556 614C153.328 614.467 165.172 614.2 177.089 612.8C189.006 611.333 200.994 608.667 212.911 607.533C224.828 606.467 236.672 606.867 248.444 607.133C260.217 607.333 272.061 607.333 283.833 607.133C295.606 606.867 307.45 606.467 319.222 607.133C330.994 607.8 342.839 609.533 354.611 612.2C366.383 614.867 378.228 618.467 384.078 620.2L390 622V640.667H384.078C378.228 640.667 366.383 640.667 354.611 640.667C342.839 640.667 330.994 640.667 319.222 640.667C307.45 640.667 295.606 640.667 283.833 640.667C272.061 640.667 260.217 640.667 248.444 640.667C236.672 640.667 224.828 640.667 212.911 640.667C200.994 640.667 189.006 640.667 177.089 640.667C165.172 640.667 153.328 640.667 141.556 640.667C129.783 640.667 117.939 640.667 106.167 640.667C94.3944 640.667 82.55 640.667 70.7778 640.667C59.0056 640.667 47.1611 640.667 35.3889 640.667C23.6167 640.667 11.7722 640.667 5.92222 640.667H0V620Z" fill="#008678"/>
<defs>
<linearGradient id="paint0_linear_64_684" x1="0" y1="0" x2="568.788" y2="346.605" gradientUnits="userSpaceOnUse">
<stop stop-color="#66287B"/>
<stop offset="0.0001" stop-color="#66287B"/>
<stop offset="1" stop-color="#2D033B"/>
</linearGradient>
</defs>
</svg>
