<svg width="390" height="844" viewBox="0 0 390 844" fill="none" xmlns="http://www.w3.org/2000/svg">
<g clip-path="url(#clip0_72_545)">
<rect width="390" height="844" fill="url(#paint0_linear_72_545)"/>
<path d="M195 844C196.228 823.252 197.456 802.503 201.644 782.546C205.833 762.589 212.983 743.423 222.372 726.192C231.761 708.96 243.389 693.75 256.172 681.09C269.028 668.43 283.039 658.32 297.194 648.297C311.35 638.363 325.578 628.428 341.033 621.483C356.489 614.537 373.244 610.581 390 606.625V844H195Z" fill="#20255F"/>
<path d="M243.75 844C244.689 828.439 245.556 812.878 248.733 797.932C251.911 782.986 257.256 768.567 264.261 755.644C271.339 742.72 280.006 731.379 289.683 721.884C299.289 712.301 309.833 704.74 320.378 697.267C330.994 689.706 341.683 682.321 353.239 677.134C364.867 671.947 377.433 668.958 390 665.969V844H243.75Z" fill="#005F93"/>
<path d="M292.5 844C293.078 833.626 293.728 823.252 295.822 813.317C297.917 803.295 301.528 793.712 306.222 785.096C310.844 776.48 316.694 768.919 323.122 762.589C329.478 756.259 336.556 751.16 343.561 746.149C350.639 741.137 357.789 736.214 365.517 732.785C373.244 729.269 381.622 727.335 390 725.312V844H292.5Z" fill="#0096A2"/>
<path d="M341.25 844C341.539 838.813 341.828 833.626 342.911 828.615C343.994 823.691 345.728 818.856 348.111 814.548C350.422 810.24 353.311 806.46 356.561 803.295C359.739 800.13 363.278 797.58 366.817 795.118C370.356 792.569 373.894 790.107 377.722 788.349C381.622 786.678 385.811 785.623 390 784.656V844H341.25Z" fill="#0AB0A0"/>
<path d="M195 0C187.272 18.4625 179.544 36.8371 175.789 57.3217C172.033 77.8062 172.322 100.313 163.222 114.731C154.194 129.15 135.778 135.568 124.583 151.656C113.461 167.833 109.417 193.68 97.5 205.549C85.5833 217.418 65.65 215.308 48.0278 218.209C30.4778 221.198 15.2389 229.287 0 237.375V0H195Z" fill="#20255F"/>
<path d="M146.25 0C140.472 13.8029 134.622 27.6938 131.878 42.9913C129.061 58.3767 129.206 75.2567 122.417 86.0704C115.628 96.8842 101.833 101.632 93.4555 113.764C85.0778 125.897 82.1167 145.238 73.1611 154.206C64.1333 163.085 49.1833 161.503 36.0389 163.701C22.8222 165.899 11.4111 171.965 0 178.031V0H146.25Z" fill="#005F93"/>
<path d="M97.5 0C93.6 9.23125 89.7722 18.4625 87.8944 28.6608C86.0167 38.8592 86.1611 50.1125 81.6111 57.3217C77.0611 64.6187 67.8889 67.7838 62.3278 75.8721C56.6944 83.8725 54.7444 96.8842 48.75 102.775C42.7556 108.753 32.7889 107.61 24.05 109.105C15.2389 110.599 7.58333 114.643 0 118.687V0H97.5Z" fill="#0096A2"/>
<path d="M48.75 0C46.8 4.57167 44.85 9.23125 43.9833 14.3304C43.0444 19.4296 43.0444 25.0562 40.8056 28.6608C38.5667 32.2654 33.9444 33.8479 31.1278 37.8921C28.3833 41.9362 27.3722 48.4421 24.4111 51.4312C21.3778 54.3325 16.3944 53.805 11.9889 54.5962C7.58333 55.2996 3.82778 57.3217 0 59.3437V0H48.75Z" fill="#0AB0A0"/>
</g>
<defs>
<linearGradient id="paint0_linear_72_545" x1="0" y1="0" x2="642.757" y2="297.008" gradientUnits="userSpaceOnUse">
<stop stop-color="#66287B"/>
<stop offset="0.0001" stop-color="#66287B"/>
<stop offset="1" stop-color="#2D033B"/>
</linearGradient>
<clipPath id="clip0_72_545">
<rect width="390" height="844" fill="white"/>
</clipPath>
</defs>
</svg>
