<svg width="1339" height="1024" viewBox="0 0 1339 1024" fill="none" xmlns="http://www.w3.org/2000/svg">
<g clip-path="url(#clip0_67_697)">
<rect width="1339" height="1024" fill="url(#paint0_linear_67_697)"/>
<path d="M962.406 1024C970.357 981.523 978.307 939.046 984.723 894.862C990.999 850.868 995.881 805.167 1012.9 768C1029.77 730.833 1058.79 702.199 1087.52 682.098C1116.25 661.807 1144.57 650.05 1169.53 625.019C1194.5 599.799 1215.98 561.493 1243.74 540.444C1271.35 519.396 1305.25 515.793 1339 512V1024H962.406Z" fill="#20255F"/>
<path d="M1056.55 1024C1062.55 992.142 1068.41 960.284 1073.29 927.099C1078.03 894.104 1081.66 859.781 1094.35 831.905C1107.05 804.219 1128.8 782.791 1150.42 767.621C1171.9 752.45 1193.24 743.538 1211.93 724.764C1230.62 705.801 1246.8 677.167 1267.59 661.239C1288.23 645.499 1313.61 642.844 1339 640V1024H1056.55Z" fill="#005F93"/>
<path d="M1150.7 1024C1154.61 1002.76 1158.65 981.523 1161.86 959.526C1165.07 937.339 1167.44 914.584 1175.95 896C1184.46 877.416 1198.96 863.194 1213.19 852.954C1227.56 842.904 1241.78 837.025 1254.2 824.51C1266.75 811.994 1277.49 792.652 1291.3 782.222C1305.25 771.793 1322.12 769.896 1339 768V1024H1150.7Z" fill="#0096A2"/>
<path d="M1244.85 1024C1246.8 1013.38 1248.76 1002.76 1250.43 991.763C1251.97 980.764 1253.22 969.197 1257.4 959.905C1261.73 950.803 1268.98 943.597 1276.09 938.477C1283.35 933.547 1290.46 930.513 1296.6 924.255C1302.87 917.997 1308.31 908.326 1315.15 903.016C1322.12 897.896 1330.49 896.948 1339 896V1024H1244.85Z" fill="#0AB0A0"/>
<path d="M376.594 0C373.386 45.5111 370.178 91.0222 358.322 130.465C346.466 170.098 325.963 203.852 311.596 244.622C297.23 285.393 289.001 332.99 266.266 362.003C243.531 391.016 206.29 401.256 174.349 410.548C142.408 419.84 115.907 428.373 87.7324 445.061C59.5576 461.938 29.8485 486.969 0 512V0H376.594Z" fill="#20255F"/>
<path d="M282.445 0C280.074 34.1333 277.703 68.2667 268.776 97.8489C259.85 127.621 244.507 152.841 233.767 183.372C222.888 214.092 216.751 249.742 199.734 271.55C182.718 293.167 154.682 300.942 130.831 307.958C106.841 314.975 86.8955 321.233 65.8342 333.748C44.6333 346.453 22.3167 365.227 0 384V0H282.445Z" fill="#005F93"/>
<path d="M188.297 0C186.763 22.7556 185.089 45.5111 179.231 65.2326C173.233 85.1437 163.051 102.021 155.798 122.311C148.685 142.601 144.5 166.495 133.203 181.096C121.765 195.508 103.075 200.628 87.1745 205.369C71.2739 209.92 57.8839 214.092 43.7965 222.625C29.8485 230.969 14.9243 243.484 0 256V0H188.297Z" fill="#0096A2"/>
<path d="M94.1484 0C93.3116 11.3778 92.6142 22.7556 89.5456 32.6163C86.6166 42.477 81.4558 51.0104 77.9689 61.0607C74.3424 71.3007 72.2502 83.2474 66.5316 90.4533C60.9524 97.6593 51.6073 100.314 43.657 102.59C35.5672 105.055 29.0117 107.141 21.8982 111.313C14.9243 115.484 7.3924 121.742 0 128V0H94.1484Z" fill="#0AB0A0"/>
</g>
<defs>
<linearGradient id="paint0_linear_67_697" x1="0" y1="0" x2="988.242" y2="1292.24" gradientUnits="userSpaceOnUse">
<stop stop-color="#66287B"/>
<stop offset="0.0001" stop-color="#66287B"/>
<stop offset="1" stop-color="#2D033B"/>
</linearGradient>
<clipPath id="clip0_67_697">
<rect width="1339" height="1024" fill="white"/>
</clipPath>
</defs>
</svg>
